<svg xmlns="http://www.w3.org/2000/svg" style="display: none;">
  <!-- Search icon -->
  <symbol id="search" viewBox="0 0 512 512">
    <path d="M416 208c0 45.9-14.9 88.3-40 122.7L502.6 457.4c12.5 12.5 12.5 32.8 0 45.3s-32.8 12.5-45.3 0L330.7 376c-34.4 25.2-76.8 40-122.7 40C93.1 416 0 322.9 0 208S93.1 0 208 0S416 93.1 416 208zM208 352a144 144 0 1 0 0-288 144 144 0 1 0 0 288z"/>
  </symbol>
  
  <!-- Spinner icon -->
  <symbol id="spinner" viewBox="0 0 512 512">
    <path d="M304 48a48 48 0 1 0 -96 0 48 48 0 1 0 96 0zm0 416a48 48 0 1 0 -96 0 48 48 0 1 0 96 0zM48 304a48 48 0 1 0 0-96 48 48 0 1 0 0 96zm464-48a48 48 0 1 0 -96 0 48 48 0 1 0 96 0zM142.9 437A48 48 0 1 0 75 369.1 48 48 0 1 0 142.9 437zm0-294.2A48 48 0 1 0 75 75a48 48 0 1 0 67.9 67.9zM369.1 437A48 48 0 1 0 437 369.1 48 48 0 1 0 369.1 437z"/>
  </symbol>
  
  <!-- Sun icon -->
  <symbol id="sun" viewBox="0 0 512 512">
    <path d="M361.5 1.2c5 2.1 8.6 6.6 9.6 11.9L391 121l107.9 19.8c5.3 1 9.8 4.6 11.9 9.6s1.5 10.7-1.6 15.2L446.9 256l62.3 90.3c3.1 4.5 3.7 10.2 1.6 15.2s-6.6 8.6-11.9 9.6L391 391 371.1 498.9c-1 5.3-4.6 9.8-9.6 11.9s-10.7 1.5-15.2-1.6L256 446.9l-90.3 62.3c-4.5 3.1-10.2 3.7-15.2 1.6s-8.6-6.6-9.6-11.9L121 391 13.1 371.1c-5.3-1-9.8-4.6-11.9-9.6s-1.5-10.7 1.6-15.2L65.1 256 2.8 165.7c-3.1-4.5-3.7-10.2-1.6-15.2s6.6-8.6 11.9-9.6L121 121 140.9 13.1c1-5.3 4.6-9.8 9.6-11.9s10.7-1.5 15.2 1.6L256 65.1 346.3 2.8c4.5-3.1 10.2-3.7 15.2-1.6zM160 256a96 96 0 1 1 192 0 96 96 0 1 1 -192 0zm224 0a128 128 0 1 0 -256 0 128 128 0 1 0 256 0z"/>
  </symbol>
  
  <!-- Moon icon -->
  <symbol id="moon" viewBox="0 0 384 512">
    <path d="M223.5 32C100 32 0 132.3 0 256S100 480 223.5 480c60.6 0 115.5-24.2 155.8-63.4c5-4.9 6.3-12.5 3.1-18.7s-10.1-9.7-17-8.5c-9.8 1.7-19.8 2.6-30.1 2.6c-96.9 0-175.5-78.8-175.5-176c0-65.8 36-123.1 89.3-153.3c6.1-3.5 9.2-10.5 7.7-17.3s-7.3-11.9-14.3-12.5c-6.3-.5-12.6-.8-19-.8z"/>
  </symbol>
  
  <!-- Download icon -->
  <symbol id="download" viewBox="0 0 512 512">
    <path d="M288 32c0-17.7-14.3-32-32-32s-32 14.3-32 32l0 242.7-73.4-73.4c-12.5-12.5-32.8-12.5-45.3 0s-12.5 32.8 0 45.3l128 128c12.5 12.5 32.8 12.5 45.3 0l128-128c12.5-12.5 12.5-32.8 0-45.3s-32.8-12.5-45.3 0L288 274.7 288 32zM64 352c-35.3 0-64 28.7-64 64l0 32c0 35.3 28.7 64 64 64l384 0c35.3 0 64-28.7 64-64l0-32c0-35.3-28.7-64-64-64l-101.5 0-45.3 45.3c-25 25-65.5 25-90.5 0L165.5 352 64 352zm368 56a24 24 0 1 1 0 48 24 24 0 1 1 0-48z"/>
  </symbol>
  
  <!-- Copy icon -->
  <symbol id="copy" viewBox="0 0 448 512">
    <path d="M208 0L332.1 0c12.7 0 24.9 5.1 33.9 14.1l67.9 67.9c9 9 14.1 21.2 14.1 33.9L448 336c0 26.5-21.5 48-48 48l-192 0c-26.5 0-48-21.5-48-48l0-288c0-26.5 21.5-48 48-48zM48 128l80 0 0 64-64 0 0 256 192 0 0-32 64 0 0 48c0 26.5-21.5 48-48 48L48 512c-26.5 0-48-21.5-48-48L0 176c0-26.5 21.5-48 48-48z"/>
  </symbol>
  
  <!-- Check icon -->
  <symbol id="check" viewBox="0 0 448 512">
    <path d="M438.6 105.4c12.5 12.5 12.5 32.8 0 45.3l-256 256c-12.5 12.5-32.8 12.5-45.3 0l-128-128c-12.5-12.5-12.5-32.8 0-45.3s32.8-12.5 45.3 0L160 338.7 393.4 105.4c12.5-12.5 32.8-12.5 45.3 0z"/>
  </symbol>
  
  <!-- Shield icon -->
  <symbol id="shield" viewBox="0 0 512 512">
    <path d="M256 0c4.6 0 9.2 1 13.4 2.9L457.7 82.8c22 9.3 38.4 31 38.3 57.2c-.5 99.2-41.3 280.7-213.6 363.2c-16.7 8-36.1 8-52.8 0C57.3 420.7 16.5 239.2 16 140c-.1-26.2 16.3-47.9 38.3-57.2L242.7 2.9C246.8 1 251.4 0 256 0z"/>
  </symbol>
  
  <!-- Bolt icon -->
  <symbol id="bolt" viewBox="0 0 448 512">
    <path d="M349.4 44.6c5.9-13.7 1.5-29.7-10.6-38.5s-28.6-8-39.9 1.8l-256 224c-10 8.8-13.6 22.9-8.9 35.3S50.7 288 64 288l111.5 0L98.6 467.4c-5.9 13.7-1.5 29.7 10.6 38.5s28.6 8 39.9-1.8l256-224c10-8.8 13.6-22.9 8.9-35.3s-16.6-20.7-30-20.7l-111.5 0L349.4 44.6z"/>
  </symbol>
  
  <!-- Chart icon -->
  <symbol id="chart" viewBox="0 0 512 512">
    <path d="M32 32c17.7 0 32 14.3 32 32l0 336c0 8.8 7.2 16 16 16l400 0c17.7 0 32 14.3 32 32s-14.3 32-32 32L80 480c-44.2 0-80-35.8-80-80L0 64C0 46.3 14.3 32 32 32zM160 224c17.7 0 32 14.3 32 32l0 64c0 17.7-14.3 32-32 32s-32-14.3-32-32l0-64c0-17.7 14.3-32 32-32zm128-64l0 160c0 17.7-14.3 32-32 32s-32-14.3-32-32l0-160c0-17.7 14.3-32 32-32s32 14.3 32 32zm64 32c17.7 0 32 14.3 32 32l0 96c0 17.7-14.3 32-32 32s-32-14.3-32-32l0-96c0-17.7 14.3-32 32-32zM480 96l0 224c0 17.7-14.3 32-32 32s-32-14.3-32-32l0-224c0-17.7 14.3-32 32-32s32 14.3 32 32z"/>
  </symbol>
  
  <!-- Plug icon -->
  <symbol id="plug" viewBox="0 0 384 512">
    <path d="M96 0C78.3 0 64 14.3 64 32l0 96 64 0 0-96c0-17.7-14.3-32-32-32zM288 0c-17.7 0-32 14.3-32 32l0 96 64 0 0-96c0-17.7-14.3-32-32-32zM32 160c-17.7 0-32 14.3-32 32s14.3 32 32 32l0 32c0 77.4 55 142 128 156.8l0 67.2c0 17.7 14.3 32 32 32s32-14.3 32-32l0-67.2C297 398 352 333.4 352 256l0-32c17.7 0 32-14.3 32-32s-14.3-32-32-32L32 160z"/>
  </symbol>
  
  <!-- Magic icon -->
  <symbol id="magic" viewBox="0 0 576 512">
    <path d="M234.7 42.7L197 56.8c-3 1.1-5 4-5 7.2s2 6.1 5 7.2l37.7 14.1L248.8 123c1.1 3 4 5 7.2 5s6.1-2 7.2-5l14.1-37.7L315 71.2c3-1.1 5-4 5-7.2s-2-6.1-5-7.2L277.3 42.7 263.2 5c-1.1-3-4-5-7.2-5s-6.1 2-7.2 5L234.7 42.7zM46.1 395.4c-18.7 18.7-18.7 49.1 0 67.9l34.6 34.6c18.7 18.7 49.1 18.7 67.9 0L529.9 116.5c18.7-18.7 18.7-49.1 0-67.9L495.3 14.1c-18.7-18.7-49.1-18.7-67.9 0L46.1 395.4zM484.6 82.6l-105 105-23.3-23.3 105-105 23.3 23.3zM7.5 117.2C3 118.9 0 123.2 0 128s3 9.1 7.5 10.8L64 160l21.2 56.5c1.7 4.5 6 7.5 10.8 7.5s9.1-3 10.8-7.5L128 160l56.5-21.2c4.5-1.7 7.5-6 7.5-10.8s-3-9.1-7.5-10.8L128 96 106.8 39.5C105.1 35 100.8 32 96 32s-9.1 3-10.8 7.5L64 96 7.5 117.2zm352 256c-4.5 1.7-7.5 6-7.5 10.8s3 9.1 7.5 10.8L416 416l21.2 56.5c1.7 4.5 6 7.5 10.8 7.5s9.1-3 10.8-7.5L480 416l56.5-21.2c4.5-1.7 7.5-6 7.5-10.8s-3-9.1-7.5-10.8L480 352l-21.2-56.5c-1.7-4.5-6-7.5-10.8-7.5s-9.1 3-10.8 7.5L416 352l-56.5 21.2z"/>
  </symbol>
  
  <!-- Mobile icon -->
  <symbol id="mobile" viewBox="0 0 384 512">
    <path d="M16 64C16 28.7 44.7 0 80 0L304 0c35.3 0 64 28.7 64 64l0 384c0 35.3-28.7 64-64 64L80 512c-35.3 0-64-28.7-64-64L16 64zM144 448c0 8.8 7.2 16 16 16l64 0c8.8 0 16-7.2 16-16s-7.2-16-16-16l-64 0c-8.8 0-16 7.2-16 16zM304 64L80 64l0 320 224 0 0-320z"/>
  </symbol>
  
  <!-- Users icon -->
  <symbol id="users" viewBox="0 0 640 512">
    <path d="M144 0a80 80 0 1 1 0 160A80 80 0 1 1 144 0zM512 0a80 80 0 1 1 0 160A80 80 0 1 1 512 0zM0 298.7C0 239.8 47.8 192 106.7 192l42.7 0c15.9 0 31 3.5 44.6 9.7c-1.3 7.2-1.9 14.7-1.9 22.3c0 38.2 16.8 72.5 43.3 96c-.2 0-.4 0-.7 0L21.3 320C9.6 320 0 310.4 0 298.7zM405.3 320c-.2 0-.4 0-.7 0c26.6-23.5 43.3-57.8 43.3-96c0-7.6-.7-15-1.9-22.3c13.6-6.3 28.7-9.7 44.6-9.7l42.7 0C592.2 192 640 239.8 640 298.7c0 11.8-9.6 21.3-21.3 21.3l-213.3 0zM224 224a96 96 0 1 1 192 0 96 96 0 1 1 -192 0zM128 485.3C128 411.7 187.7 352 261.3 352l117.3 0C452.3 352 512 411.7 512 485.3c0 14.7-11.9 26.7-26.7 26.7l-330.7 0c-14.7 0-26.7-11.9-26.7-26.7z"/>
  </symbol>
  
  <!-- Cogs icon -->
  <symbol id="cogs" viewBox="0 0 640 512">
    <path d="M308.5 135.3c7.1-6.3 9.9-16.2 6.2-25c-2.3-5.3-4.8-10.5-7.6-15.5L304 89.4c-3-5-6.3-9.9-9.8-14.6c-5.7-7.6-15.7-10.1-24.7-7.1l-28.2 9.3c-10.7-8.8-23-16-36.2-20.9L199 27.1c-1.9-9.3-9.1-16.7-18.5-17.8C173.9 8.4 167.2 8 160.4 8l-.7 0c-6.8 0-13.5 .4-20.1 1.2c-9.4 1.1-16.6 8.6-18.5 17.8L115 56.1c-13.3 5-25.5 12.1-36.2 20.9L50.5 67.8c-9-3-19-.5-24.7 7.1c-3.5 4.7-6.8 9.6-9.9 14.6l-3 5.3c-2.8 5-5.3 10.2-7.6 15.6c-3.7 8.7-.9 18.6 6.2 25l22.2 19.8C32.6 161.9 32 168.9 32 176s.6 14.1 1.7 20.9L11.5 216.7c-7.1 6.3-9.9 16.2-6.2 25c2.3 5.3 4.8 10.5 7.6 15.6l3 5.2c3 5.1 6.3 9.9 9.9 14.6c5.7 7.6 15.7 10.1 24.7 7.1l28.2-9.3c10.7 8.8 23 16 36.2 20.9l6.1 29.1c1.9 9.3 9.1 16.7 18.5 17.8c6.7 .8 13.5 1.2 20.4 1.2s13.7-.4 20.4-1.2c9.4-1.1 16.6-8.6 18.5-17.8l6.1-29.1c13.3-5 25.5-12.1 36.2-20.9l28.2 9.3c9 3 19 .5 24.7-7.1c3.5-4.7 6.8-9.5 9.8-14.6l3.1-5.4c2.8-5 5.3-10.2 7.6-15.5c3.7-8.7 .9-18.6-6.2-25l-22.2-19.8c1.1-6.8 1.7-13.8 1.7-20.9s-.6-14.1-1.7-20.9l22.2-19.8zM112 176a48 48 0 1 1 96 0 48 48 0 1 1 -96 0zM504.7 500.5c6.3 7.1 16.2 9.9 25 6.2c5.3-2.3 10.5-4.8 15.5-7.6l5.4-3.1c5-3 9.9-6.3 14.6-9.8c7.6-5.7 10.1-15.7 7.1-24.7l-9.3-28.2c8.8-10.7 16-23 20.9-36.2l29.1-6.1c9.3-1.9 16.7-9.1 17.8-18.5c.8-6.7 1.2-13.5 1.2-20.4s-.4-13.7-1.2-20.4c-1.1-9.4-8.6-16.6-17.8-18.5L583.9 307c-5-13.3-12.1-25.5-20.9-36.2l9.3-28.2c3-9 .5-19-7.1-24.7c-4.7-3.5-9.6-6.8-14.6-9.9l-5.3-3c-5-2.8-10.2-5.3-15.6-7.6c-8.7-3.7-18.6-.9-25 6.2l-19.8 22.2c-6.8-1.1-13.8-1.7-20.9-1.7s-14.1 .6-20.9 1.7l-19.8-22.2c-6.3-7.1-16.2-9.9-25-6.2c-5.3 2.3-10.5 4.8-15.6 7.6l-5.2 3c-5.1 3-9.9 6.3-14.6 9.9c-7.6 5.7-10.1 15.7-7.1 24.7l9.3 28.2c-8.8 10.7-16 23-20.9 36.2L315.1 313c-9.3 1.9-16.7 9.1-17.8 18.5c-.8 6.7-1.2 13.5-1.2 20.4s.4 13.7 1.2 20.4c1.1 9.4 8.6 16.6 17.8 18.5l29.1 6.1c5 13.3 12.1 25.5 20.9 36.2l-9.3 28.2c-3 9-.5 19 7.1 24.7c4.7 3.5 9.5 6.8 14.6 9.8l5.4 3.1c5 2.8 10.2 5.3 15.5 7.6c8.7 3.7 18.6 .9 25-6.2l19.8-22.2c6.8 1.1 13.8 1.7 20.9 1.7s14.1-.6 20.9-1.7l19.8 22.2zM464 304a48 48 0 1 1 0 96 48 48 0 1 1 0-96z"/>
  </symbol>
  
  <!-- Headset icon -->
  <symbol id="headset" viewBox="0 0 512 512">
    <path d="M256 48C141.1 48 48 141.1 48 256l0 40c0 13.3-10.7 24-24 24s-24-10.7-24-24l0-40C0 114.6 114.6 0 256 0S512 114.6 512 256l0 144.1c0 48.6-39.4 88-88.1 88L313.6 488c-8.3 14.3-23.8 24-41.6 24l-32 0c-26.5 0-48-21.5-48-48s21.5-48 48-48l32 0c17.8 0 33.3 9.7 41.6 24l110.4 .1c22.1 0 40-17.9 40-40L464 256c0-114.9-93.1-208-208-208zM144 208l16 0c17.7 0 32 14.3 32 32l0 112c0 17.7-14.3 32-32 32l-16 0c-35.3 0-64-28.7-64-64l0-48c0-35.3 28.7-64 64-64zm224 0c35.3 0 64 28.7 64 64l0 48c0 35.3-28.7 64-64 64l-16 0c-17.7 0-32-14.3-32-32l0-112c0-17.7 14.3-32 32-32l16 0z"/>
  </symbol>
  
  <!-- Lightbulb icon -->
  <symbol id="lightbulb" viewBox="0 0 384 512">
    <path d="M272 384c9.6-31.9 29.5-59.1 49.2-86.2c0 0 0 0 0 0c5.2-7.1 10.4-14.2 15.4-21.4c19.8-28.5 31.4-63 31.4-100.3C368 78.8 289.2 0 192 0S16 78.8 16 176c0 37.3 11.6 71.9 31.4 100.3c5 7.2 10.2 14.3 15.4 21.4c0 0 0 0 0 0c19.8 27.1 39.7 54.4 49.2 86.2l160 0zM192 512c44.2 0 80-35.8 80-80l0-16-160 0 0 16c0 44.2 35.8 80 80 80zM112 176c0 8.8-7.2 16-16 16s-16-7.2-16-16c0-61.9 50.1-112 112-112c8.8 0 16 7.2 16 16s-7.2 16-16 16c-44.2 0-80 35.8-80 80z"/>
  </symbol>
  
  <!-- Circle Info icon -->
  <symbol id="circle-info" viewBox="0 0 512 512">
    <path d="M256 512A256 256 0 1 0 256 0a256 256 0 1 0 0 512zM216 336l24 0 0-64-24 0c-13.3 0-24-10.7-24-24s10.7-24 24-24l48 0c13.3 0 24 10.7 24 24l0 88 8 0c13.3 0 24 10.7 24 24s-10.7 24-24 24l-80 0c-13.3 0-24-10.7-24-24s10.7-24 24-24zm40-208a32 32 0 1 1 0 64 32 32 0 1 1 0-64z"/>
  </symbol>
  
  <!-- Triangle Exclamation icon -->
  <symbol id="triangle-exclamation" viewBox="0 0 512 512">
    <path d="M256 32c14.2 0 27.3 7.5 34.5 19.8l216 368c7.3 12.4 7.3 27.7 .2 40.1S486.3 480 472 480L40 480c-14.3 0-27.6-7.7-34.7-20.1s-7-27.8 .2-40.1l216-368C228.7 39.5 241.8 32 256 32zm0 128c-13.3 0-24 10.7-24 24l0 112c0 13.3 10.7 24 24 24s24-10.7 24-24l0-112c0-13.3-10.7-24-24-24zm32 224a32 32 0 1 0 -64 0 32 32 0 1 0 64 0z"/>
  </symbol>
  
  <!-- Gear icon -->
  <symbol id="gear" viewBox="0 0 512 512">
    <path d="M495.9 166.6c3.2 8.7 .5 18.4-6.4 24.6l-43.3 39.4c1.1 8.3 1.7 16.8 1.7 25.4s-.6 17.1-1.7 25.4l43.3 39.4c6.9 6.2 9.6 15.9 6.4 24.6c-4.4 11.9-9.7 23.3-15.8 34.3l-4.7 8.1c-6.6 11-14 21.4-22.1 31.2c-5.9 7.2-15.7 9.6-24.5 6.8l-55.7-17.7c-13.4 10.3-28.2 18.9-44 25.4l-12.5 57.1c-2 9.1-9 16.3-18.2 17.8c-13.8 2.3-28 3.5-42.5 3.5s-28.7-1.2-42.5-3.5c-9.2-1.5-16.2-8.7-18.2-17.8l-12.5-57.1c-15.8-6.5-30.6-15.1-44-25.4L83.1 425.9c-8.8 2.8-18.6 .3-24.5-6.8c-8.1-9.8-15.5-20.2-22.1-31.2l-4.7-8.1c-6.1-11-11.4-22.4-15.8-34.3c-3.2-8.7-.5-18.4 6.4-24.6l43.3-39.4C64.6 273.1 64 264.6 64 256s.6-17.1 1.7-25.4L22.4 191.2c-6.9-6.2-9.6-15.9-6.4-24.6c4.4-11.9 9.7-23.3 15.8-34.3l4.7-8.1c6.6-11 14-21.4 22.1-31.2c5.9-7.2 15.7-9.6 24.5-6.8l55.7 17.7c13.4-10.3 28.2-18.9 44-25.4l12.5-57.1c2-9.1 9-16.3 18.2-17.8C227.3 1.2 241.5 0 256 0s28.7 1.2 42.5 3.5c9.2 1.5 16.2 8.7 18.2 17.8l12.5 57.1c15.8 6.5 30.6 15.1 44 25.4l55.7-17.7c8.8-2.8 18.6-.3 24.5 6.8c8.1 9.8 15.5 20.2 22.1 31.2l4.7 8.1c6.1 11 11.4 22.4 15.8 34.3zM256 336a80 80 0 1 1 0-160 80 80 0 1 1 0 160z"/>
  </symbol>
  
  <!-- Eye icon -->
  <symbol id="eye" viewBox="0 0 576 512">
    <path d="M288 32c-80.8 0-145.5 36.8-192.6 80.6C48.6 156 17.3 208 2.5 243.7c-3.3 7.9-3.3 16.7 0 24.6C17.3 304 48.6 356 95.4 399.4C142.5 443.2 207.2 480 288 480s145.5-36.8 192.6-80.6c46.8-43.5 78.1-95.4 93-131.1c3.3-7.9 3.3-16.7 0-24.6c-14.9-35.7-46.2-87.7-93-131.1C433.5 68.8 368.8 32 288 32zM432 256c0 79.5-64.5 144-144 144s-144-64.5-144-144s64.5-144 144-144s144 64.5 144 144zM288 192c0 35.3-28.7 64-64 64c-11.5 0-22.3-3-31.6-8.4c-.2 2.8-.4 5.5-.4 8.4c0 53 43 96 96 96s96-43 96-96s-43-96-96-96c-2.8 0-5.6 .1-8.4 .4c5.3 9.3 8.4 20.1 8.4 31.6z"/>
  </symbol>
  
  <!-- Document icon -->
  <symbol id="document" viewBox="0 0 384 512">
    <path d="M0 64C0 28.7 28.7 0 64 0L224 0l0 128c0 17.7 14.3 32 32 32l128 0 0 288c0 35.3-28.7 64-64 64L64 512c-35.3 0-64-28.7-64-64L0 64zm384 64L256 0l0 128 128 0z"/>
  </symbol>
  
  <!-- Palette icon -->
  <symbol id="palette" viewBox="0 0 512 512">
    <path d="M512 256c0 .9 0 1.8 0 2.7c-.4 36.5-33.6 61.3-70.1 61.3H344c-26.5 0-48 21.5-48 48c0 3.4 .4 6.7 1 9.9c2.1 10.2 6.5 20 10.8 29.9c6.1 13.8 12.1 27.5 12.1 42c0 31.8-21.6 60.7-53.4 62c-3.5 .1-7 .2-10.6 .2C114.6 512 0 397.4 0 256S114.6 0 256 0S512 114.6 512 256zM128 288c0-17.7-14.3-32-32-32s-32 14.3-32 32s14.3 32 32 32s32-14.3 32-32zm0-96c17.7 0 32-14.3 32-32s-14.3-32-32-32s-32 14.3-32 32s14.3 32 32 32zM288 96c0-17.7-14.3-32-32-32s-32 14.3-32 32s14.3 32 32 32s32-14.3 32-32zm96 96c17.7 0 32-14.3 32-32s-14.3-32-32-32s-32 14.3-32 32s14.3 32 32 32z"/>
  </symbol>

  <!-- Database icon -->
  <symbol id="database" viewBox="0 0 448 512">
    <path d="M448 80v48c0 44.2-100.3 80-224 80S0 172.2 0 128V80C0 35.8 100.3 0 224 0S448 35.8 448 80zM393.2 214.7c20.8-7.4 39.9-16.9 54.8-28.6V288c0 44.2-100.3 80-224 80S0 332.2 0 288V186.1c14.9 11.8 34 21.2 54.8 28.6C99.7 230.7 159.5 240 224 240s124.3-9.3 169.2-25.3zM0 346.1c14.9 11.8 34 21.2 54.8 28.6C99.7 390.7 159.5 400 224 400s124.3-9.3 169.2-25.3c20.8-7.4 39.9-16.9 54.8-28.6V448c0 44.2-100.3 80-224 80S0 492.2 0 448V346.1z"/>
  </symbol>

  <!-- Calendar icon -->
  <symbol id="calendar" viewBox="0 0 448 512">
    <path d="M96 32V64H48C21.5 64 0 85.5 0 112v48H448V112c0-26.5-21.5-48-48-48H352V32c0-17.7-14.3-32-32-32s-32 14.3-32 32V64H160V32c0-17.7-14.3-32-32-32S96 14.3 96 32zM448 192H0V464c0 26.5 21.5 48 48 48H400c26.5 0 48-21.5 48-48V192z"/>
  </symbol>

  <!-- Map Pin icon -->
  <symbol id="map-pin" viewBox="0 0 320 512">
    <path d="M16 144a144 144 0 1 1 288 0A144 144 0 1 1 16 144zM160 80c8.8 0 16-7.2 16-16s-7.2-16-16-16c-53 0-96 43-96 96c0 8.8 7.2 16 16 16s16-7.2 16-16c0-35.3 28.7-64 64-64zM128 480V317.1c10.4 1.9 21.1 2.9 32 2.9s21.6-1 32-2.9V480c0 17.7-14.3 32-32 32s-32-14.3-32-32z"/>
  </symbol>

  <!-- Chart Bar icon -->
  <symbol id="chart-bar" viewBox="0 0 512 512">
    <path d="M32 32c17.7 0 32 14.3 32 32V400c0 8.8 7.2 16 16 16H480c17.7 0 32 14.3 32 32s-14.3 32-32 32H80c-44.2 0-80-35.8-80-80V64C0 46.3 14.3 32 32 32zm96 160c0-17.7 14.3-32 32-32h32c17.7 0 32 14.3 32 32v96c0 17.7-14.3 32-32 32H160c-17.7 0-32-14.3-32-32V192zm96-64c17.7 0 32 14.3 32 32V288c0 17.7-14.3 32-32 32s-32-14.3-32-32V160c0-17.7 14.3-32 32-32zm96 32c0-17.7 14.3-32 32-32h32c17.7 0 32 14.3 32 32v96c0 17.7-14.3 32-32 32H352c-17.7 0-32-14.3-32-32V160z"/>
  </symbol>

  <!-- Shield Check icon -->
  <symbol id="shield-check" viewBox="0 0 512 512">
    <path d="M269.4 2.9C265.2 1 260.7 0 256 0s-9.2 1-13.4 2.9L54.3 82.8c-22 9.3-38.4 31-38.3 57.2c.5 99.2 41.3 280.7 213.6 363.2c16.7 8 36.1 8 52.8 0C454.7 420.7 495.5 239.2 496 140c.1-26.2-16.3-47.9-38.3-57.2L269.4 2.9zm144.1 154.2L222.9 347.9c-8.8 8.5-22.9 8.3-31.5-.4l-85.3-87.1c-8.6-8.8-8.4-22.9.4-31.5s22.9-8.4 31.5.4l69.6 71.1L381.6 126.7c8.6-8.8 22.7-9 31.5-.4s9 22.7.4 31.5z"/>
  </symbol>

  <!-- Code icon -->
  <symbol id="code" viewBox="0 0 640 512">
    <path d="M392.8 1.2c-17-4.9-34.7 5-39.6 22l-128 448c-4.9 17 5 34.7 22 39.6s34.7-5 39.6-22l128-448c4.9-17-5-34.7-22-39.6zm80.6 120.1c-12.5 12.5-12.5 32.8 0 45.3L562.7 256l-89.4 89.4c-12.5 12.5-12.5 32.8 0 45.3s32.8 12.5 45.3 0l112-112c12.5-12.5 12.5-32.8 0-45.3l-112-112c-12.5-12.5-32.8-12.5-45.3 0zm-306.7 0c-12.5-12.5-32.8-12.5-45.3 0l-112 112c-12.5 12.5-12.5 32.8 0 45.3l112 112c12.5 12.5 32.8 12.5 45.3 0s12.5-32.8 0-45.3L77.3 256l89.4-89.4c12.5-12.5 12.5-32.8 0-45.3z"/>
  </symbol>

  <!-- Clock icon -->
  <symbol id="clock" viewBox="0 0 512 512">
    <path d="M256 0a256 256 0 1 1 0 512A256 256 0 1 1 256 0zM232 120V256c0 8 4 15.5 10.7 20l96 64c11 7.4 25.9 4.4 33.3-6.7s4.4-25.9-6.7-33.3L280 243.2V120c0-13.3-10.7-24-24-24s-24 10.7-24 24z"/>
  </symbol>

  <!-- Bell icon -->
  <symbol id="bell" viewBox="0 0 448 512">
    <path d="M224 0c-17.7 0-32 14.3-32 32V51.2C119 66 64 130.6 64 208v18.8c0 47-17.3 92.4-48.5 127.6l-7.4 8.3c-8.4 9.4-10.4 22.9-5.3 34.4S19.4 416 32 416H416c12.6 0 24-7.4 29.2-18.9s3.1-25-5.3-34.4l-7.4-8.3C401.3 319.2 384 273.9 384 226.8V208c0-77.4-55-142-128-156.8V32c0-17.7-14.3-32-32-32zm45.3 493.3c12-12 18.7-28.3 18.7-45.3H224 160c0 17 6.7 33.3 18.7 45.3s28.3 18.7 45.3 18.7s33.3-6.7 45.3-18.7z"/>
  </symbol>

  <!-- Trash icon -->
  <symbol id="trash" viewBox="0 0 448 512">
    <path d="M135.2 17.7L128 32H32C14.3 32 0 46.3 0 64S14.3 96 32 96H416c17.7 0 32-14.3 32-32s-14.3-32-32-32H320l-7.2-14.3C307.4 6.8 296.3 0 284.2 0H163.8c-12.1 0-23.2 6.8-28.6 17.7zM416 128H32L53.2 467c1.6 25.3 22.6 45 47.9 45H346.9c25.3 0 46.3-19.7 47.9-45L416 128z"/>
  </symbol>

  <!-- Expand icon -->
  <symbol id="expand" viewBox="0 0 448 512">
    <path d="M32 32C14.3 32 0 46.3 0 64v96c0 17.7 14.3 32 32 32s32-14.3 32-32V96h64c17.7 0 32-14.3 32-32s-14.3-32-32-32H32zM64 352c0-17.7-14.3-32-32-32s-32 14.3-32 32v96c0 17.7 14.3 32 32 32h96c17.7 0 32-14.3 32-32s-14.3-32-32-32H64V352zM320 32c-17.7 0-32 14.3-32 32s14.3 32 32 32h64v64c0 17.7 14.3 32 32 32s32-14.3 32-32V64c0-17.7-14.3-32-32-32H320zM448 352c0-17.7-14.3-32-32-32s-32 14.3-32 32v64H320c-17.7 0-32 14.3-32 32s14.3 32 32 32h96c17.7 0 32-14.3 32-32V352z"/>
  </symbol>

  <!-- Compress icon -->
  <symbol id="compress" viewBox="0 0 448 512">
    <path d="M160 64c0-17.7-14.3-32-32-32s-32 14.3-32 32v64H32c-17.7 0-32 14.3-32 32s14.3 32 32 32h96c17.7 0 32-14.3 32-32V64zM32 320c-17.7 0-32 14.3-32 32s14.3 32 32 32H96v64c0 17.7 14.3 32 32 32s32-14.3 32-32V352c0-17.7-14.3-32-32-32H32zM352 64c0-17.7-14.3-32-32-32s-32 14.3-32 32v96c0 17.7 14.3 32 32 32h96c17.7 0 32-14.3 32-32s-14.3-32-32-32H352V64zM320 320c-17.7 0-32 14.3-32 32v96c0 17.7 14.3 32 32 32s32-14.3 32-32V384h64c17.7 0 32-14.3 32-32s-14.3-32-32-32H320z"/>
  </symbol>

  <!-- Xmark (close) icon -->
  <symbol id="xmark" viewBox="0 0 320 512">
    <path d="M310.6 150.6c12.5-12.5 12.5-32.8 0-45.3s-32.8-12.5-45.3 0L160 210.7 54.6 105.4c-12.5-12.5-32.8-12.5-45.3 0s-12.5 32.8 0 45.3L114.7 256 9.4 361.4c-12.5 12.5-12.5 32.8 0 45.3s32.8 12.5 45.3 0L160 301.3 265.4 406.6c12.5 12.5 32.8 12.5 45.3 0s12.5-32.8 0-45.3L205.3 256 310.6 150.6z"/>
  </symbol>

  <!-- Paper Plane (send) icon -->
  <symbol id="paper-plane" viewBox="0 0 512 512">
    <path d="M498.1 5.6c10.1 7 15.4 19.1 13.5 31.2l-64 416c-1.5 9.7-7.4 18.2-16 23s-18.9 5.4-28 1.6L277.3 424.9l-40.1 74.5c-5.2 9.7-16.3 14.6-27 11.9S192 499 192 488V392c0-5.3 1.8-10.5 5.1-14.7L362.4 164.7c2.5-7.1-6.5-14.3-13-8.4L170.4 318.2l-32 28.9 0 0c-9.2 8.3-22.3 10.6-33.8 5.8l-85-35.4C8.4 312.8 .8 302.2 .1 290s5.5-23.7 16.1-29.8l448-256c10.7-6.1 23.9-5.5 34 1.4z"/>
  </symbol>
</svg>