<?xml version="1.0" encoding="utf-8"?>
<svg xmlns="http://www.w3.org/2000/svg" fill="none" height="394" viewBox="0 0 940 394" width="940">
<g clip-path="url(#clip0_15_2948)">
<path d="M24 364.337V24H165.909C191.39 24 212.742 27.601 229.965 34.8031C247.187 41.9942 260.148 52.0816 268.847 65.0431C277.547 78.0047 281.896 93.0146 281.896 110.084C281.896 123.045 279.176 134.597 273.748 144.729C268.319 154.871 260.842 163.263 251.317 169.903C241.791 176.554 230.769 181.202 218.248 183.856V187.181C231.98 187.842 244.699 191.564 256.382 198.315C268.066 205.077 277.459 214.47 284.55 226.485C291.642 238.51 295.188 252.716 295.188 269.113C295.188 287.394 290.541 303.714 281.236 318.052C271.931 332.402 258.474 343.7 240.855 351.96C223.248 360.208 201.863 364.337 176.712 364.337H24ZM106.258 163.923H151.792C160.767 163.923 168.739 162.426 175.721 159.43C182.702 156.435 188.153 152.118 192.095 146.469C196.026 140.819 197.997 134.003 197.997 126.03C197.997 114.621 193.956 105.646 185.862 99.1044C177.78 92.5741 166.867 89.3034 153.124 89.3034H106.258V163.923ZM106.258 298.032H157.111C174.95 298.032 188.098 294.651 196.577 287.901C205.056 281.139 209.285 271.723 209.285 259.654C209.285 250.899 207.236 243.345 203.14 236.968C199.044 230.603 193.218 225.67 185.697 222.179C178.165 218.688 169.136 216.948 158.608 216.948H106.269V298.043L106.258 298.032Z" fill="#01A0D2"/>
<path d="M388.865 24V364.337H307.609V24H388.865Z" fill="#01A0D2"/>
<path d="M570.483 254.159V109.082H651.574V364.337H574.139V316.808H571.474C565.825 332.424 556.211 344.812 542.645 353.953C529.067 363.093 512.704 367.663 493.543 367.663C476.145 367.663 460.86 363.677 447.679 355.693C434.498 347.72 424.246 336.553 416.934 322.204C409.622 307.855 405.911 291.039 405.801 271.767V109.082H487.057V255.821C487.167 269.675 490.823 280.588 498.025 288.561C505.227 296.534 515.027 300.521 527.438 300.521C535.52 300.521 542.81 298.726 549.285 295.114C555.771 291.513 560.913 286.249 564.735 279.333C568.556 272.406 570.472 264.015 570.472 254.159H570.483Z" fill="#01A0D2"/>
<path d="M794.859 369.161C768.155 369.161 745.141 363.875 725.815 353.292C706.478 342.709 691.634 327.589 681.283 307.921C670.921 288.253 665.746 264.852 665.746 237.706C665.746 210.561 670.954 188.261 681.36 168.494C691.778 148.715 706.456 133.32 725.397 122.297C744.337 111.273 766.658 105.767 792.359 105.767C810.529 105.767 827.146 108.597 842.21 114.247C857.274 119.896 870.29 128.254 881.258 139.333C892.225 150.411 900.76 164.067 906.849 180.299C912.939 196.531 915.989 215.109 915.989 236.055V256.328H694.145V209.129H840.371C840.261 200.496 838.213 192.787 834.226 186.025C830.24 179.264 824.778 173.978 817.852 170.156C810.925 166.335 802.986 164.43 794.011 164.43C785.037 164.43 776.778 166.445 769.587 170.487C762.385 174.539 756.681 180.024 752.475 186.939C748.268 193.866 746.044 201.696 745.824 210.451V258.476C745.824 268.893 747.872 278.001 751.968 285.808C756.065 293.616 761.879 299.684 769.422 304.001C776.954 308.318 785.929 310.487 796.346 310.487C803.547 310.487 810.077 309.485 815.958 307.492C821.827 305.499 826.87 302.569 831.077 298.682C835.283 294.806 838.444 290.037 840.547 284.388L915.163 286.546C912.058 303.274 905.274 317.81 894.802 330.166C884.33 342.522 870.62 352.103 853.673 358.909C836.726 365.725 817.114 369.128 794.848 369.128L794.859 369.161Z" fill="#01A0D2"/>
</g>
<defs>
<clipPath id="clip0_15_2948">
<rect fill="white" height="345.161" transform="translate(24 24)" width="892"/>
</clipPath>
</defs>
</svg>